<svg id="Layer_1" data-name="Layer 1" xmlns="http://www.w3.org/2000/svg" viewBox="0 0 454.7 369"><title>asset</title><path d="M449.1,5.8A18.8,18.8,0,0,0,435.9.3L19,0h0A18.5,18.5,0,0,0,5.8,5.6,18.5,18.5,0,0,0,.2,18.8L0,349.9a19,19,0,0,0,18.8,18.8l416.9.3h0a18.5,18.5,0,0,0,13.2-5.6,18.9,18.9,0,0,0,5.6-13.2l.2-331.1A18.9,18.9,0,0,0,449.1,5.8ZM436.6,350.2a1.4,1.4,0,0,1-.9.9v0l-416.9-.3c-.3,0-.9-.5-.9-.8l.2-282H436.7ZM429.1,34a10.6,10.6,0,0,1-10.6,10.6L125,44.4a10.6,10.6,0,1,1,0-21.2H418.5A10.6,10.6,0,0,1,429.1,34ZM93.6,33.5a7.2,7.2,0,1,1-7.2-7.2A7.2,7.2,0,0,1,93.6,33.5Zm-21.2,0a7.2,7.2,0,1,1-7.2-7.2A7.2,7.2,0,0,1,72.4,33.5ZM44,26.3a7.2,7.2,0,1,1-7.2,7.2A7.2,7.2,0,0,1,44,26.3Z" style="fill:#aaa"/><path d="M144.3,40.7h-1.6l-2-7h-.1l-2,7H137l-2.6-9.2h1.8l1.6,7.2h.1l2-7.2h1.5l2.1,7.2h0l1.7-7.2h1.6Z" style="fill:#f16975"/><path d="M157.9,40.7h-1.6l-2.1-7h0l-2,7h-1.6L148,31.5h1.7l1.7,7.2h0l2.1-7.2H155l2,7.2h.1l1.7-7.2h1.6Z" style="fill:#f16975"/><path d="M171.5,40.7h-1.6l-2.1-7h0l-2.1,7h-1.6l-2.6-9.2h1.8l1.6,7.2h.1l2-7.2h1.5l2.1,7.2h.1l1.6-7.2h1.6Z" style="fill:#f16975"/><path d="M175.9,38.4a1.2,1.2,0,0,1,1.2,1.2,1.2,1.2,0,0,1-1.2,1.3,1.3,1.3,0,0,1-1.3-1.3A1.2,1.2,0,0,1,175.9,38.4Z" style="fill:#f16975"/><path d="M180.8,32.8h-1.5V31.5h1.5v-.9c0-1.8.9-2.6,2.9-2.6h1.1v1.3H184c-1.1,0-1.6.3-1.6,1.4v.8h2.2v1.3h-2.2v7.9h-1.6Z" style="fill:#f16975"/><path d="M186.3,38c0-1.6,1.1-2.7,3.3-2.7H192v-.9c0-1.2-.8-1.7-2-1.7s-1.6.4-1.8,1.1h-1.5c.1-1.6,1.3-2.5,3.4-2.5s3.5.9,3.5,3.1v6.3h-1.5V39.5H192a3.1,3.1,0,0,1-2.7,1.4A2.8,2.8,0,0,1,186.3,38Zm5.7-.4V36.5h-2.3c-1.2,0-1.8.7-1.8,1.5s.9,1.5,1.9,1.5A2,2,0,0,0,192,37.6Z" style="fill:#f16975"/><path d="M198.3,40.7h-1.6V28.1h1.6v7.5h0l3.8-4.1h1.8l-3.6,4,3.8,5.2h-1.9l-3.1-4.2-.8.8Z" style="fill:#f16975"/><path d="M205.4,36.8V35.4a3.8,3.8,0,1,1,7.6,0v1.1h-6.1V37a2.3,2.3,0,0,0,2.4,2.5,2,2,0,0,0,2-1.1h1.6c-.1,1-1.3,2.5-3.6,2.5S205.4,39.3,205.4,36.8Zm6-1.4v-.2a2.3,2.3,0,1,0-4.5,0v.2Z" style="fill:#f16975"/><path d="M224.5,40.7h-1.6l-2.1-7h0l-2,7h-1.6l-2.6-9.2h1.8l1.6,7.2h.1l2-7.2h1.5l2.1,7.2h0l1.7-7.2H227Z" style="fill:#f16975"/><path d="M228.4,36.8V35.4a3.9,3.9,0,1,1,7.7,0v1.1H230V37a2.3,2.3,0,0,0,2.4,2.5c1,0,1.8-.5,1.9-1.1H236a3.5,3.5,0,0,1-3.6,2.5A3.8,3.8,0,0,1,228.4,36.8Zm6.1-1.4v-.2a2.3,2.3,0,1,0-4.5,0v.2Z" style="fill:#f16975"/><path d="M240.3,39.4h0v1.3h-1.6V28.1h1.6v4.8h.1a2.8,2.8,0,0,1,2.7-1.6c2.2,0,3.6,1.6,3.6,4v1.6c0,2.5-1.4,4-3.6,4A3,3,0,0,1,240.3,39.4Zm4.8-2.8v-1c0-1.8-.9-2.9-2.4-2.9a2.4,2.4,0,0,0-2.4,2.7V37a2.4,2.4,0,0,0,2.5,2.5C244.2,39.5,245.1,38.4,245.1,36.6Z" style="fill:#f16975"/><path d="M252.3,31.3c2,0,3.4,1.1,3.4,2.6h-1.5a1.8,1.8,0,0,0-1.9-1.3c-1.1,0-1.9.5-1.9,1.4s1.3,1.2,2.3,1.4,3.2.8,3.2,2.6-1.5,2.9-3.7,2.9-3.5-.9-3.5-2.6h1.6c.1.8.7,1.3,2,1.3s2-.6,2-1.4-1-1.2-2.3-1.5-3.1-.7-3.1-2.6S250.5,31.3,252.3,31.3Z" style="fill:#f16975"/><path d="M259.5,27.5a1,1,0,0,1,1.1,1.1,1,1,0,0,1-1.1,1.1,1,1,0,0,1-1.1-1.1A1.1,1.1,0,0,1,259.5,27.5Zm-.8,4h1.6v9.2h-1.6Z" style="fill:#f16975"/><path d="M264.2,29.2h1.5v2.3h2.1v1.3h-2.1v5.3c0,1.1.4,1.4,1.5,1.4h.8v1.3h-1.2c-2.2,0-2.6-.8-2.6-2.7V32.8h-1.5V31.5h1.5Z" style="fill:#f16975"/><path d="M270,36.8V35.4a3.9,3.9,0,1,1,7.7,0v1.1h-6.1V37a2.3,2.3,0,0,0,2.3,2.5,2,2,0,0,0,2-1.1h1.6c-.1,1-1.2,2.5-3.6,2.5S270,39.3,270,36.8Zm6.1-1.4v-.2a2.3,2.3,0,1,0-4.5,0v.2Z" style="fill:#f16975"/><path d="M281.3,38.4a1.2,1.2,0,0,1,1.3,1.2,1.2,1.2,0,0,1-1.3,1.3,1.2,1.2,0,0,1-1.2-1.3A1.2,1.2,0,0,1,281.3,38.4Z" style="fill:#f16975"/><path d="M285.1,35.3a3.7,3.7,0,0,1,3.9-4c2.3,0,3.5,1.5,3.5,2.9H291a1.8,1.8,0,0,0-2-1.5c-1.5,0-2.3,1.1-2.3,2.7v1.4c0,1.7.9,2.7,2.3,2.7s1.9-.6,2-1.4h1.6c-.1,1.4-1.2,2.8-3.6,2.8s-3.9-1.6-3.9-4.1Z" style="fill:#f16975"/><path d="M302.6,35.4v1.4a4,4,0,1,1-8,0V35.4a3.9,3.9,0,0,1,4-4.1A3.8,3.8,0,0,1,302.6,35.4Zm-6.4.2v1.1c0,1.7.9,2.8,2.4,2.8s2.4-1.1,2.4-2.8V35.6c0-1.7-.9-2.9-2.4-2.9S296.2,33.9,296.2,35.6Z" style="fill:#f16975"/><path d="M305.3,31.5h1.6V33h.1a2.3,2.3,0,0,1,2.5-1.7,2.4,2.4,0,0,1,2.5,1.8h.1a3,3,0,0,1,2.8-1.8,2.8,2.8,0,0,1,3.1,2.9v6.5h-1.6v-6a1.8,1.8,0,0,0-1.9-2,2.1,2.1,0,0,0-2.1,2.2v5.8h-1.6v-6a1.8,1.8,0,0,0-1.9-2,2,2,0,0,0-2,2.2v5.8h-1.6Z" style="fill:#f16975"/><path d="M201.5,143.7h-9.8V127.1h2.2v14.6h7.6Z" style="fill:#f16975"/><path d="M214.8,136.4v1.8c0,3.7-2.4,5.7-5.6,5.7s-5.5-2-5.5-5.7v-1.8c0-3.5,2.3-5.7,5.5-5.7A5.3,5.3,0,0,1,214.8,136.4Zm-8.9.1v1.6c0,2.3,1.2,3.9,3.3,3.9s3.3-1.6,3.3-3.9v-1.6c0-2.3-1.2-3.9-3.3-3.9S205.9,134.2,205.9,136.5Z" style="fill:#f16975"/><path d="M226.5,143.3v-1.8h-.1a3.9,3.9,0,0,1-3.6,2c-2.9,0-5.1-2-5.1-5.4v-2c0-3.4,2.2-5.4,5-5.4a4.2,4.2,0,0,1,3.8,2.1h.1v-1.9h2.1v12.5c0,3.5-2.4,5-5.7,5s-4.9-1.6-5-3.5h2.2c.2.9,1.2,1.7,2.9,1.7S226.5,145.4,226.5,143.3Zm-6.6-6.8v1.2c0,2.4,1.4,3.9,3.4,3.9a3.2,3.2,0,0,0,3.2-3.5v-1.9a3.3,3.3,0,0,0-3.2-3.6C221.2,132.6,219.9,134.2,219.9,136.5Z" style="fill:#f16975"/><path d="M239.9,125.4a1.5,1.5,0,0,1,1.6,1.5,1.6,1.6,0,0,1-3.2,0A1.5,1.5,0,0,1,239.9,125.4Zm-1.1,5.5H241v12.8h-2.2Z" style="fill:#f16975"/><path d="M245.6,130.9h2.2v2.3h.1a3.8,3.8,0,0,1,3.9-2.5c2.6,0,4.4,1.4,4.4,4.3v8.7H254v-8c0-2-1.1-3.1-2.8-3.1s-3.4,1.8-3.4,4v7.1h-2.2Z" style="fill:#f16975"/><path d="M261.8,140.5a1.8,1.8,0,0,1,1.8,1.8,1.8,1.8,0,0,1-1.8,1.7,1.7,1.7,0,0,1-1.7-1.7A1.7,1.7,0,0,1,261.8,140.5Zm1.3-13.4-.3,10.7h-2l-.2-10.7Z" style="fill:#f16975"/><path d="M87,188v-6.9h1.4v7c0,2.3-1.6,3.8-4.1,3.8a3.7,3.7,0,0,1-4-3.8v-7h1.4V188a2.4,2.4,0,0,0,2.6,2.6A2.5,2.5,0,0,0,87,188Z" style="fill:#404242"/><path d="M93.8,183.4c1.8,0,3,.9,3,2.3H95.4c0-.6-.5-1.2-1.6-1.2s-1.7.4-1.7,1.2,1.1,1.1,2.1,1.3,2.8.7,2.8,2.3-1.3,2.6-3.3,2.6-3.1-.9-3.1-2.3H92c.1.7.6,1.1,1.7,1.1s1.9-.5,1.9-1.2-.9-1.1-2.1-1.3-2.8-.7-2.8-2.3S92.2,183.4,93.8,183.4Z" style="fill:#404242"/><path d="M98.9,188.2V187a3.4,3.4,0,1,1,6.8,0v1h-5.4v.4a2.1,2.1,0,0,0,2.1,2.3,1.7,1.7,0,0,0,1.7-1h1.5c-.1.9-1.1,2.2-3.2,2.2S98.9,190.5,98.9,188.2Zm5.4-1.2v-.2a2,2,0,1,0-4,0v.2Z" style="fill:#404242"/><path d="M108.2,183.5h1.4v1.3h0a2.2,2.2,0,0,1,2.3-1.4h.5v1.3h-.7a1.9,1.9,0,0,0-2.1,2v5h-1.4Z" style="fill:#404242"/><path d="M114.3,183.5h1.4V185h.1a2.3,2.3,0,0,1,2.5-1.6,2.5,2.5,0,0,1,2.8,2.7v5.6h-1.5v-5.1c0-1.3-.6-2-1.7-2s-2.2,1.1-2.2,2.6v4.5h-1.4Z" style="fill:#404242"/><path d="M123.3,189.3c0-1.4,1-2.4,2.9-2.4h2.2v-.8c0-1-.7-1.5-1.8-1.5s-1.4.4-1.6,1h-1.4c.2-1.4,1.3-2.2,3.1-2.2s3.1.7,3.1,2.7v5.6h-1.4v-1.1h0a2.7,2.7,0,0,1-2.4,1.3A2.5,2.5,0,0,1,123.3,189.3Zm5.1-.4V188h-2.1c-1.1,0-1.5.6-1.5,1.3a1.5,1.5,0,0,0,1.6,1.4A1.9,1.9,0,0,0,128.4,188.9Z" style="fill:#404242"/><path d="M132.5,183.5h1.4v1.3h.1a2,2,0,0,1,2.2-1.4,2.2,2.2,0,0,1,2.3,1.5h.1a2.5,2.5,0,0,1,2.5-1.5c1.7,0,2.7.9,2.7,2.5v5.8h-1.4v-5.3a1.6,1.6,0,0,0-1.7-1.8,1.8,1.8,0,0,0-1.8,1.9v5.2h-1.4v-5.3a1.7,1.7,0,0,0-1.8-1.8,1.8,1.8,0,0,0-1.8,1.9v5.2h-1.4Z" style="fill:#404242"/><path d="M146.1,188.2V187a3.4,3.4,0,0,1,3.4-3.6,3.3,3.3,0,0,1,3.4,3.6v1h-5.4v.4a2.1,2.1,0,0,0,2.1,2.3,1.8,1.8,0,0,0,1.8-1h1.4c-.1.9-1.1,2.2-3.2,2.2S146.1,190.5,146.1,188.2Zm5.4-1.2v-.2a2,2,0,1,0-4,0v.2Z" style="fill:#404242"/><path d="M156.4,184.3a1.1,1.1,0,0,1,1.1,1.2,1.1,1.1,0,0,1-1.1,1.1,1.1,1.1,0,0,1-1.2-1.1A1.2,1.2,0,0,1,156.4,184.3Zm0,5.3a1.1,1.1,0,0,1,1.1,1.2,1.1,1.1,0,0,1-1.1,1.1,1.1,1.1,0,0,1-1.2-1.1A1.2,1.2,0,0,1,156.4,189.6Z" style="fill:#404242"/><path d="M87.7,220.4a3.2,3.2,0,0,1-3.4,3.4H81.8v3.9H80.4V217.1h3.9A3.1,3.1,0,0,1,87.7,220.4Zm-3.5-2.1H81.8v4.2h2.4a2.1,2.1,0,0,0,0-4.2Z" style="fill:#404242"/><path d="M89.2,225.3c0-1.4,1-2.4,2.9-2.4h2.1v-.8c0-1-.7-1.5-1.7-1.5s-1.5.4-1.6,1H89.5c.1-1.4,1.2-2.2,3-2.2s3.1.7,3.1,2.7v5.6H94.3v-1.1h-.1a2.7,2.7,0,0,1-5-1.3Zm5-.4V224h-2c-1.1,0-1.6.6-1.6,1.3a1.5,1.5,0,0,0,1.6,1.4A1.8,1.8,0,0,0,94.2,224.9Z" style="fill:#404242"/><path d="M101,219.4c1.8,0,3,.9,3,2.3h-1.3a1.5,1.5,0,0,0-1.7-1.2c-1,0-1.7.4-1.7,1.2s1.2,1.1,2.1,1.3,2.8.7,2.8,2.3-1.3,2.6-3.3,2.6-3.1-.9-3.1-2.3h1.4c.1.7.6,1.1,1.8,1.1s1.8-.5,1.8-1.2-.9-1.1-2.1-1.3-2.7-.7-2.7-2.3S99.4,219.4,101,219.4Z" style="fill:#404242"/><path d="M109.2,219.4c1.7,0,2.9.9,2.9,2.3h-1.3c0-.6-.6-1.2-1.7-1.2s-1.6.4-1.6,1.2,1.1,1.1,2,1.3,2.8.7,2.8,2.3-1.3,2.6-3.3,2.6-3-.9-3-2.3h1.3c.2.7.7,1.1,1.8,1.1s1.8-.5,1.8-1.2-.9-1.1-2-1.3-2.8-.7-2.8-2.3S107.6,219.4,109.2,219.4Z" style="fill:#404242"/><path d="M122.6,227.7h-1.4l-1.9-6.2h0l-1.8,6.2h-1.4l-2.4-8.2h1.6l1.5,6.5h0l1.8-6.5H120l1.8,6.5h.1l1.4-6.5h1.5Z" style="fill:#404242"/><path d="M133.1,223v1.2a3.6,3.6,0,1,1-7.1,0V223a3.4,3.4,0,0,1,3.6-3.6A3.3,3.3,0,0,1,133.1,223Zm-5.6.1v1c0,1.5.7,2.6,2.1,2.6s2.1-1.1,2.1-2.6v-1c0-1.5-.8-2.5-2.1-2.5S127.5,221.6,127.5,223.1Z" style="fill:#404242"/><path d="M135.6,219.5h1.5v1.3h0a2.2,2.2,0,0,1,2.3-1.4h.5v1.3h-.7a1.9,1.9,0,0,0-2.1,2v5h-1.5Z" style="fill:#404242"/><path d="M146.9,220.7h.1v-4.2h1.4v11.2h-1.3v-1.3H147a2.4,2.4,0,0,1-2.5,1.4c-1.9,0-3.1-1.3-3.1-3.4v-1.6c0-2.1,1.2-3.4,3.1-3.4A2.4,2.4,0,0,1,146.9,220.7Zm-4.1,2.4v1c0,1.6.8,2.5,2.1,2.5s2.1-.9,2.1-2.4v-1.4a2.1,2.1,0,0,0-2.2-2.2C143.6,220.6,142.8,221.5,142.8,223.1Z" style="fill:#404242"/><path d="M152.3,220.3a1.1,1.1,0,0,1,1.1,1.2,1.1,1.1,0,1,1-2.2,0A1.1,1.1,0,0,1,152.3,220.3Zm0,5.3a1.1,1.1,0,0,1,1.1,1.2,1.1,1.1,0,1,1-2.2,0A1.1,1.1,0,0,1,152.3,225.6Z" style="fill:#404242"/><rect x="168.3" y="177.5" width="213" height="25" style="fill:none;stroke:#aaa;stroke-miterlimit:10"/><rect x="168.3" y="211.5" width="213" height="25" style="fill:none;stroke:#aaa;stroke-miterlimit:10"/></svg>